<svg xmlns="http://www.w3.org/2000/svg" width="215" height="83" viewBox="0 0 215 83">
  <g id="Vector_Smart_Object" data-name="Vector Smart Object" transform="translate(-425 -45)">
    <g id="Vector_Smart_Object-2" data-name="Vector Smart Object" transform="translate(364.693 -10.763)">
      <g id="Grupo_8" data-name="Grupo 8">
        <g id="Grupo_4" data-name="Grupo 4">
          <path id="Caminho_3550" data-name="Caminho 3550" d="M124.355,107.86c7.685,0,11.214,5.627,11.214,15.185,0,9.956-3.754,15.718-11.482,15.718-8.042,0-11.213-5.893-11.213-15.361C112.873,113.174,116.938,107.86,124.355,107.86Zm-7.148,15.764c0,7.993,2.949,11.834,7.1,11.834,4.379,0,7.014-3.841,7.014-12.279s-3.083-12.014-7.1-12.014h-.045C120.021,111.165,117.206,115.006,117.206,123.624Z" fill="#004964"/>
          <path id="Caminho_3551" data-name="Caminho 3551" d="M151.963,120.542h-.223a4.959,4.959,0,0,1-1.207-.266,6.854,6.854,0,0,0-2.68-.582,2.847,2.847,0,0,0-.625.046c-2.815.22-4.824,2.68-4.824,8.036,0,6.432,2.815,7.774,5.718,7.774a9.379,9.379,0,0,0,3.843-.85,5.3,5.3,0,0,1,.268,1.25,2.687,2.687,0,0,1-.982,1.786,7.373,7.373,0,0,1-3.934.982c-4.824,0-8.932-1.786-8.932-10.716,0-4.734,1.519-7.636,3.26-9.246a8.643,8.643,0,0,1,6.12-2.189c2.635,0,4.6,1.207,4.779,1.789A5.17,5.17,0,0,1,151.963,120.542Z" fill="#004964"/>
          <path id="Caminho_3552" data-name="Caminho 3552" d="M168.982,134.3a10.126,10.126,0,0,1,.269,1.786c-.045.894-1.342,1.832-2.589,2.143a14.126,14.126,0,0,1-3.4.448,8.177,8.177,0,0,1-6.075-2.144c-1.564-1.609-2.37-4.423-2.37-8.127,0-8.622,3.666-11.837,8.579-11.837,4.022,0,6.075,2.457,6.478,6.3.045.67.088,1.383.088,2.142a11.61,11.61,0,0,1-.268,2.638,8.74,8.74,0,0,1-3.126,1.024,52.512,52.512,0,0,1-5.807.269c-.717,0-1.3,0-2.01-.043.045,4.912,2.144,6.475,5.27,6.475A10.4,10.4,0,0,0,168.982,134.3Zm-6.431-14.782c-1.787.268-3.486,2.277-3.711,6.609h1.7c1.744,0,3.577-.042,4.425-.134a2.313,2.313,0,0,0,1.025-.265,4.387,4.387,0,0,0,.225-1.476c0-.356-.045-.67-.045-.982-.223-2.5-1.2-3.8-3.214-3.8A1.284,1.284,0,0,0,162.551,119.515Z" fill="#004964"/>
          <path id="Caminho_3553" data-name="Caminho 3553" d="M173.673,119.2a1.554,1.554,0,0,1,.091-.491,11.409,11.409,0,0,1,6.611-2.146c.714,0,.8,0,1.565.046,3.3.222,4.377,2.411,4.377,6.207v2.009c0,3.085-.092,6.655-.092,9.024,0,0-.177,2.32,1.253,2.054-.046.624-.046,1.384-.046,1.649a3.09,3.09,0,0,1-2.366,1.027,3.944,3.944,0,0,1-2.681-1.606,6.489,6.489,0,0,1-1.3,1.027,7.088,7.088,0,0,1-3.26.579c-2.86,0-5.584-1.783-5.584-5.893,0-5.493,4.867-6.878,7.548-7.146a12.072,12.072,0,0,1,1.251-.045,6.959,6.959,0,0,1,1.476.134v-2.545c0-2.009-.222-3.128-2.144-3.128a13.414,13.414,0,0,0-4.693,1.164,3.353,3.353,0,0,1-1.293.357,3.778,3.778,0,0,1-.671-1.787A1.623,1.623,0,0,1,173.673,119.2Zm8.847,12.146v-3.17a5.856,5.856,0,0,0-.894-.043,14.376,14.376,0,0,0-1.473.088c-2.147.357-3.98,1.3-3.98,4.109,0,2.277.985,3.08,2.37,3.17h.314a4.894,4.894,0,0,0,3.44-1.384,3.579,3.579,0,0,0,.131-.628A13.825,13.825,0,0,0,182.52,131.349Z" fill="#004964"/>
          <path id="Caminho_3554" data-name="Caminho 3554" d="M195.3,121.749v13.932a3.36,3.36,0,0,1-.491,2.1c-.54.445-1.028.4-3.443.445.045-2.411.091-5.267.091-8.706v-7.591a9.756,9.756,0,0,0-.536-3.35,5.828,5.828,0,0,1,1.787-1.027.97.97,0,0,1,.311-.046c.805,0,1.208.582,1.387,1.339a9.127,9.127,0,0,1,3.08-1.74,8.441,8.441,0,0,1,2.773-.491c5.315,0,6.34,2.814,6.34,7.859v6.835c0,2.454.045,4.6.091,6.384-.448.4-1.116.536-3.662.536a3.822,3.822,0,0,1-.357-1.828V124.563c0-3.438-.85-4.688-3.531-4.688A5.223,5.223,0,0,0,195.3,121.749Z" fill="#004964"/>
        </g>
        <path id="Caminho_3555" data-name="Caminho 3555" d="M211.555,109.781c0-.357-.043-.85-.043-1.3a2.794,2.794,0,0,1,1.162-.312h.134c1.384-.091,2.992-.134,4.6-.134,5.986,0,9.606,2.589,9.606,9.2,0,6.432-4.334,8.53-7.325,8.886-.985,0-2.37-.088-2.37-1.875,0-.222.314-.448.671-.448,2.144,0,4.736-1.606,4.736-6.74,0-4.332-2.278-5.807-4.962-5.807a14.655,14.655,0,0,0-2.232.089v19.739l.045,4.96a2.786,2.786,0,0,1-.448,1.74c-.491.537-1.384.445-3.574.445.045-2.588.091-5.581.091-9.154Z" fill="#004964"/>
        <path id="Caminho_3556" data-name="Caminho 3556" d="M230.408,119.2a1.639,1.639,0,0,1,.089-.491,11.428,11.428,0,0,1,6.615-2.146c.714,0,.8,0,1.561.046,3.308.222,4.379,2.411,4.379,6.207v2.009c0,3.085-.091,6.655-.091,9.024,0,0-.177,2.32,1.253,2.054-.045.624-.045,1.384-.045,1.649a3.092,3.092,0,0,1-2.367,1.027,3.948,3.948,0,0,1-2.68-1.606,6.609,6.609,0,0,1-1.3,1.027,7.091,7.091,0,0,1-3.26.579c-2.86,0-5.587-1.783-5.587-5.893,0-5.493,4.87-6.878,7.551-7.146a12.026,12.026,0,0,1,1.25-.045,6.961,6.961,0,0,1,1.476.134v-2.545c0-2.009-.223-3.128-2.144-3.128a13.383,13.383,0,0,0-4.69,1.164,3.375,3.375,0,0,1-1.3.357,3.778,3.778,0,0,1-.671-1.787A1.623,1.623,0,0,1,230.408,119.2Zm8.847,12.146v-3.17a5.872,5.872,0,0,0-.894-.043,14.376,14.376,0,0,0-1.473.088c-2.144.357-3.976,1.3-3.976,4.109,0,2.277.982,3.08,2.366,3.17h.314a4.9,4.9,0,0,0,3.44-1.384,3.738,3.738,0,0,0,.134-.628A14.258,14.258,0,0,0,239.255,131.349Z" fill="#004964"/>
        <path id="Caminho_3557" data-name="Caminho 3557" d="M260.565,120.542h-.226a4.955,4.955,0,0,1-1.207-.266,6.843,6.843,0,0,0-2.68-.582,2.862,2.862,0,0,0-.625.046c-2.815.22-4.825,2.68-4.825,8.036,0,6.432,2.818,7.774,5.718,7.774a9.393,9.393,0,0,0,3.845-.85,5.4,5.4,0,0,1,.266,1.25,2.666,2.666,0,0,1-.982,1.786,7.373,7.373,0,0,1-3.934.982c-4.822,0-8.936-1.786-8.936-10.716,0-4.734,1.522-7.636,3.266-9.246a8.637,8.637,0,0,1,6.118-2.189c2.635,0,4.6,1.207,4.781,1.789A5.211,5.211,0,0,1,260.565,120.542Z" fill="#004964"/>
        <path id="Caminho_3558" data-name="Caminho 3558" d="M275.035,135.727a12.236,12.236,0,0,1-.043,1.25,1.611,1.611,0,0,1-.671.893,7.756,7.756,0,0,1-3.751.848c-4.157,0-4.913-3.884-4.913-7.5v-11.03a5.812,5.812,0,0,1-2.684-.445c0-1.384.046-1.207.4-1.564.628-.537,2.01-.671,2.681-.982l.226-4.021c.311-.893,1.248-1.652,3.349-1.786-.046,2.054-.092,3.93-.092,5.762h5.767c-.134,2.235-.405,2.725-1.028,2.856a8.527,8.527,0,0,1-1.073.091c-1.162.046-1.744.046-3.666.046-.043,2.052-.088,4.152-.088,6.073,0,1.964.045,3.7.045,5.18.18,2.5.582,4.243,2.367,4.243a8.123,8.123,0,0,0,3.083-.893A6.089,6.089,0,0,1,275.035,135.727Z" fill="#004964"/>
        <g id="Grupo_5" data-name="Grupo 5">
          <path id="Caminho_3559" data-name="Caminho 3559" d="M61.7,104.907c2.963-3.667,5.55-10.247,9.438-11.646,4.9-1.761,14.773.862,19.241-1.31,2.589-1.256,4.128-4.594,5.869-7.619a9.3,9.3,0,0,0-6.737-3.413H75.393A9.132,9.132,0,0,0,68.337,84.8l-7.06,11.646a8.254,8.254,0,0,0,0,7.765Z" fill="#004964"/>
          <path id="Caminho_3560" data-name="Caminho 3560" d="M73.737,100.746c4.942-1.661,14.751,1.15,19.264-.933,3.117-1.435,4.807-5.862,7.1-9.172L98.017,87.2c-1.784,3.076-3.335,6.529-5.978,7.814C87.571,97.182,77.7,94.562,72.8,96.32c-3.839,1.381-6.411,7.822-9.326,11.512l1.736,2.862C67.808,107.01,70.32,101.9,73.737,100.746Z" fill="#004964"/>
          <path id="Caminho_3561" data-name="Caminho 3561" d="M96.8,107.227c-4.513,2.081-14.322-.731-19.261.933-3.172,1.07-5.567,5.559-7.979,9.143a9.335,9.335,0,0,0,5.835,2.434H89.507a9.148,9.148,0,0,0,7.06-3.881l7.057-11.646a8.372,8.372,0,0,0,.554-6.544C101.74,101.011,100.044,105.734,96.8,107.227Z" fill="#004964"/>
        </g>
        <g id="Grupo_6" data-name="Grupo 6">
          <path id="Caminho_3562" data-name="Caminho 3562" d="M109.222,76.552c3.84-1.293,11.462.893,14.967-.725,2.424-1.116,3.737-4.554,5.518-7.128l-1.622-2.674c-1.387,2.389-2.592,5.074-4.644,6.073-3.472,1.684-11.136-.351-14.948,1.016-2.983,1.073-4.981,6.076-7.245,8.944L102.6,84.28C104.62,81.421,106.57,77.448,109.222,76.552Z" fill="#004964"/>
          <path id="Caminho_3563" data-name="Caminho 3563" d="M99.873,79.786c2.3-2.851,4.307-7.962,7.328-9.049,3.811-1.367,11.479.667,14.95-1.019,2.01-.976,3.205-3.567,4.559-5.919a7.229,7.229,0,0,0-5.233-2.651H110.509a7.1,7.1,0,0,0-5.481,3.017l-5.484,9.046a6.4,6.4,0,0,0,0,6.033Z" fill="#004964"/>
          <path id="Caminho_3564" data-name="Caminho 3564" d="M127.141,81.589c-3.506,1.616-11.131-.571-14.964.722-2.466.833-4.328,4.321-6.2,7.106a7.262,7.262,0,0,0,4.533,1.889h10.968a7.091,7.091,0,0,0,5.481-3.016l5.484-9.046a6.513,6.513,0,0,0,.431-5.082C130.978,76.758,129.659,80.428,127.141,81.589Z" fill="#004964"/>
        </g>
        <g id="Grupo_7" data-name="Grupo 7">
          <path id="Caminho_3565" data-name="Caminho 3565" d="M81.762,66.8c2.749-.925,8.213.642,10.725-.52,1.736-.8,2.677-3.265,3.954-5.105L95.28,59.259c-.994,1.712-1.856,3.636-3.326,4.349-2.49,1.21-7.982-.248-10.714.731-2.136.768-3.569,4.352-5.193,6.409l.965,1.592C78.462,70.289,79.864,67.443,81.762,66.8Z" fill="#004964"/>
          <path id="Caminho_3566" data-name="Caminho 3566" d="M94.6,70.411c-2.512,1.156-7.973-.408-10.722.517-1.767.6-3.1,3.1-4.442,5.091a5.2,5.2,0,0,0,3.249,1.356h7.859a5.094,5.094,0,0,0,3.928-2.16L98.4,68.73a4.649,4.649,0,0,0,.3-3.636C97.349,66.955,96.4,69.581,94.6,70.411Z" fill="#004964"/>
          <path id="Caminho_3567" data-name="Caminho 3567" d="M75.062,69.118c1.65-2.04,3.089-5.7,5.253-6.484,2.729-.979,8.224.48,10.711-.73,1.441-.7,2.295-2.557,3.266-4.241a5.17,5.17,0,0,0-3.748-1.9H82.684a5.083,5.083,0,0,0-3.928,2.163l-3.931,6.481a4.6,4.6,0,0,0,0,4.323Z" fill="#004964"/>
        </g>
      </g>
    </g>
    <path id="Color_Overlay" data-name="Color Overlay" d="M477.566,112.639c0-10.228,4.065-15.541,11.482-15.541,7.684,0,11.214,5.627,11.214,15.185,0,9.956-3.755,15.718-11.482,15.718C480.738,128,477.566,122.107,477.566,112.639Zm4.333.222c0,7.994,2.949,11.834,7.1,11.834,4.379,0,7.014-3.84,7.014-12.279s-3.082-12.015-7.1-12.015h-.046C484.715,100.4,481.9,104.243,481.9,112.861Zm148.452,7.591V109.422a5.806,5.806,0,0,1-2.684-.445c0-1.384.046-1.208.4-1.563.628-.537,2.01-.671,2.68-.982l.226-4.021c.311-.894,1.247-1.652,3.349-1.786-.047,2.055-.092,3.929-.092,5.762H640c-.134,2.235-.405,2.725-1.028,2.857a8.669,8.669,0,0,1-1.073.091c-1.162.046-1.744.046-3.666.046-.043,2.052-.088,4.152-.088,6.072,0,1.964.045,3.7.045,5.18.18,2.5.583,4.243,2.367,4.243a8.123,8.123,0,0,0,3.083-.893,6.094,6.094,0,0,1,.088.982,12.093,12.093,0,0,1-.043,1.25,1.607,1.607,0,0,1-.67.893,7.757,7.757,0,0,1-3.751.848C631.108,127.955,630.352,124.07,630.352,120.451Zm-18.68-3.213c0-4.734,1.522-7.636,3.266-9.246a8.639,8.639,0,0,1,6.118-2.189c2.634,0,4.6,1.207,4.782,1.789a5.213,5.213,0,0,1-.58,2.186h-.226a4.961,4.961,0,0,1-1.208-.266,6.839,6.839,0,0,0-2.68-.582,2.889,2.889,0,0,0-.625.046c-2.815.22-4.824,2.679-4.824,8.036,0,6.431,2.818,7.773,5.718,7.773a9.4,9.4,0,0,0,3.846-.851,5.408,5.408,0,0,1,.266,1.25,2.672,2.672,0,0,1-.982,1.786,7.374,7.374,0,0,1-3.934.982C615.786,127.955,611.672,126.168,611.672,117.239Zm-108.6,0c0-4.734,1.518-7.636,3.26-9.246a8.644,8.644,0,0,1,6.12-2.189c2.635,0,4.6,1.207,4.779,1.789a5.16,5.16,0,0,1-.58,2.186h-.222a4.961,4.961,0,0,1-1.208-.266,6.853,6.853,0,0,0-2.68-.582,2.869,2.869,0,0,0-.626.046c-2.814.22-4.824,2.679-4.824,8.036,0,6.431,2.814,7.773,5.718,7.773a9.375,9.375,0,0,0,3.842-.851,5.292,5.292,0,0,1,.268,1.25,2.686,2.686,0,0,1-.981,1.786,7.374,7.374,0,0,1-3.934.982C507.184,127.955,503.077,126.168,503.077,117.239Zm18.806,8.529c-1.564-1.609-2.37-4.423-2.37-8.126,0-8.622,3.666-11.838,8.579-11.838,4.023,0,6.075,2.457,6.478,6.3.045.671.087,1.383.087,2.143a11.567,11.567,0,0,1-.268,2.637,8.718,8.718,0,0,1-3.126,1.024,52.532,52.532,0,0,1-5.806.268c-.717,0-1.3,0-2.01-.042.045,4.911,2.143,6.475,5.269,6.475a10.4,10.4,0,0,0,4.958-1.073,10.187,10.187,0,0,1,.269,1.786c-.046.895-1.342,1.832-2.589,2.144a14.161,14.161,0,0,1-3.4.448A8.177,8.177,0,0,1,521.883,125.768Zm5.361-17.016c-1.786.268-3.486,2.278-3.712,6.61h1.7c1.744,0,3.577-.042,4.424-.134a2.326,2.326,0,0,0,1.025-.266,4.387,4.387,0,0,0,.225-1.476c0-.356-.045-.671-.045-.981-.223-2.5-1.205-3.8-3.214-3.8A1.307,1.307,0,0,0,527.244,108.752Zm76.57,17.463a6.622,6.622,0,0,1-1.3,1.027,7.1,7.1,0,0,1-3.261.579c-2.86,0-5.586-1.783-5.586-5.892,0-5.494,4.871-6.878,7.551-7.146a12.04,12.04,0,0,1,1.25-.045,7,7,0,0,1,1.476.133v-2.545c0-2.009-.222-3.127-2.144-3.127a13.37,13.37,0,0,0-4.69,1.165,3.377,3.377,0,0,1-1.3.356,3.78,3.78,0,0,1-.671-1.786,1.821,1.821,0,0,1,.043-.981A11.424,11.424,0,0,1,601.8,105.8c.714,0,.8,0,1.562.046,3.308.222,4.379,2.411,4.379,6.206v2.009c0,3.085-.091,6.655-.091,9.024,0,0-.178,2.32,1.253,2.054-.045.625-.045,1.384-.045,1.65a3.092,3.092,0,0,1-2.367,1.027A3.947,3.947,0,0,1,603.815,126.214Zm-2.233-8.753c-2.145.357-3.977,1.3-3.977,4.109,0,2.278.982,3.08,2.367,3.171h.314a4.9,4.9,0,0,0,3.44-1.384,3.759,3.759,0,0,0,.134-.627,14.366,14.366,0,0,0,.088-2.143v-3.171a5.9,5.9,0,0,0-.894-.043A14.385,14.385,0,0,0,601.582,117.461Zm-54.5,8.753a6.5,6.5,0,0,1-1.3,1.027,7.1,7.1,0,0,1-3.261.579c-2.86,0-5.584-1.783-5.584-5.892,0-5.494,4.867-6.878,7.547-7.146a12.082,12.082,0,0,1,1.251-.045,7.011,7.011,0,0,1,1.476.133v-2.545c0-2.009-.222-3.127-2.145-3.127a13.4,13.4,0,0,0-4.693,1.165,3.35,3.35,0,0,1-1.293.356,3.78,3.78,0,0,1-.67-1.786,1.622,1.622,0,0,1-.046-.491,1.562,1.562,0,0,1,.091-.491,11.409,11.409,0,0,1,6.611-2.146c.715,0,.8,0,1.565.046,3.3.222,4.377,2.411,4.377,6.206v2.009c0,3.085-.092,6.655-.092,9.024,0,0-.177,2.32,1.253,2.054-.045.625-.045,1.384-.045,1.65a3.09,3.09,0,0,1-2.367,1.027A3.947,3.947,0,0,1,547.078,126.214Zm-2.232-8.753c-2.146.357-3.98,1.3-3.98,4.109,0,2.278.986,3.08,2.37,3.171h.315a4.9,4.9,0,0,0,3.44-1.384,3.671,3.671,0,0,0,.13-.627,13.808,13.808,0,0,0,.092-2.143v-3.171a5.889,5.889,0,0,0-.894-.043A14.4,14.4,0,0,0,544.846,117.461Zm31.4,10c.045-2.588.091-5.581.091-9.154l-.091-19.291c0-.357-.044-.851-.044-1.3a2.788,2.788,0,0,1,1.163-.312h.134c1.384-.091,2.992-.134,4.6-.134,5.986,0,9.606,2.588,9.606,9.2,0,6.432-4.333,8.53-7.325,8.887-.985,0-2.37-.088-2.37-1.876,0-.221.314-.447.67-.447,2.145,0,4.737-1.606,4.737-6.741,0-4.332-2.278-5.807-4.962-5.807a14.615,14.615,0,0,0-2.232.089v19.739l.045,4.96a2.782,2.782,0,0,1-.448,1.74c-.365.4-.955.452-2.138.452C577.28,127.47,576.806,127.463,576.249,127.463Zm-8.888-1.829V113.8c0-3.438-.851-4.688-3.532-4.688a5.225,5.225,0,0,0-3.839,1.875v13.932a3.358,3.358,0,0,1-.49,2.1c-.54.445-1.028.4-3.443.445.046-2.411.091-5.268.091-8.707v-7.591a9.774,9.774,0,0,0-.536-3.351,5.81,5.81,0,0,1,1.786-1.027.971.971,0,0,1,.311-.046c.8,0,1.207.581,1.387,1.338a9.125,9.125,0,0,1,3.081-1.74,8.428,8.428,0,0,1,2.772-.491c5.315,0,6.341,2.813,6.341,7.859v6.835c0,2.454.045,4.6.091,6.384-.448.4-1.116.536-3.662.536A3.814,3.814,0,0,1,567.362,125.635Zm-127.275-16.66a9.336,9.336,0,0,1-5.835-2.435c2.412-3.585,4.807-8.073,7.979-9.143,2.359-.8,5.83-.569,9.305-.342,3.8.248,7.6.5,9.956-.591,3.246-1.493,4.942-6.215,7.38-9.56a8.371,8.371,0,0,1-.554,6.544l-7.057,11.646a9.148,9.148,0,0,1-7.059,3.881ZM428.165,97.069c2.915-3.69,5.487-10.13,9.327-11.512,2.341-.84,5.814-.681,9.291-.522,3.805.173,7.616.347,9.95-.787,2.643-1.284,4.193-4.738,5.978-7.814l2.087,3.444c-2.3,3.31-3.985,7.737-7.1,9.172-2.359,1.088-6.163.841-9.964.592-3.472-.226-6.942-.453-9.3.341-3.416,1.153-5.928,6.264-8.529,9.949Zm-2.194-3.621a8.25,8.25,0,0,1,0-7.765l7.059-11.646a9.133,9.133,0,0,1,7.057-3.882H454.2a9.3,9.3,0,0,1,6.737,3.413c-1.742,3.026-3.281,6.364-5.869,7.619-2.335,1.135-6.143.961-9.948.787-3.478-.159-6.952-.318-9.293.523-3.888,1.4-6.475,7.979-9.437,11.646ZM475.2,80.543a7.262,7.262,0,0,1-4.533-1.889c1.873-2.785,3.734-6.273,6.2-7.105,1.831-.618,4.529-.442,7.229-.266,2.95.193,5.9.386,7.735-.457,2.518-1.161,3.838-4.831,5.733-7.428a6.514,6.514,0,0,1-.431,5.082l-5.484,9.047a7.091,7.091,0,0,1-5.481,3.016Zm-9.261-9.248c2.264-2.868,4.262-7.871,7.246-8.944,1.821-.653,4.522-.53,7.224-.407,2.954.135,5.91.27,7.723-.608,2.053-1,3.257-3.685,4.644-6.073l1.622,2.674c-1.781,2.574-3.094,6.013-5.518,7.129-1.832.845-4.786.653-7.738.459-2.7-.176-5.4-.352-7.229.265-2.652.9-4.6,4.868-6.627,7.727Zm-1.7-2.814a6.4,6.4,0,0,1,0-6.033l5.484-9.046a7.094,7.094,0,0,1,5.481-3.017h10.968a7.231,7.231,0,0,1,5.233,2.651c-1.354,2.352-2.55,4.942-4.559,5.918-1.814.881-4.773.746-7.728.612-2.7-.123-5.4-.247-7.222.407-3.02,1.087-5.03,6.2-7.328,9.05Zm-16.861-1.869a5.2,5.2,0,0,1-3.248-1.355c1.345-1.994,2.675-4.495,4.441-5.09a15.151,15.151,0,0,1,5.18-.19c2.114.138,4.23.276,5.542-.328,1.8-.83,2.749-3.456,4.1-5.316a4.647,4.647,0,0,1-.3,3.636l-3.928,6.484a5.092,5.092,0,0,1-3.928,2.16Zm-6.637-6.627c1.624-2.057,3.057-5.641,5.192-6.409a15.145,15.145,0,0,1,5.173-.292c2.119.1,4.24.193,5.541-.439,1.47-.713,2.332-2.636,3.326-4.349l1.162,1.918c-1.276,1.84-2.218,4.306-3.954,5.1-1.313.607-3.433.469-5.549.33a15.145,15.145,0,0,0-5.176.19c-1.9.642-3.3,3.487-4.75,5.539Zm-1.222-2.017a4.6,4.6,0,0,1,0-4.324l3.931-6.481A5.084,5.084,0,0,1,447.377,45h7.86a5.171,5.171,0,0,1,3.749,1.9c-.971,1.684-1.825,3.542-3.266,4.241-1.3.632-3.422.535-5.54.439a15.126,15.126,0,0,0-5.171.292c-2.164.779-3.6,4.443-5.253,6.484Z" fill="#fff"/>
  </g>
</svg>
